<svg width="83" height="79" viewBox="0 0 83 79" fill="none" xmlns="http://www.w3.org/2000/svg">
<path d="M83 16.5179C77.7114 13.3068 55.2349 21.7448 49.5439 1.13949C49.199 -0.0844411 48.193 -0.372426 47.302 0.520326C46.0374 1.78746 45.9224 2.16184 45.0745 3.45777C30.4446 -4.21702 31.0626 7.70554 31.0626 7.70554C19.2926 1.1107 13.8316 17.4682 13.8316 17.4682C7.17772 14.2572 4.08792 27.1301 4.08792 27.1301C-6.14435 31.9394 6.05677 47.865 6.05677 47.865C2.72266 48.6137 4.70588 70.2414 22.3249 70.4574C22.871 70.4574 23.4028 70.6158 23.8483 70.9325C27.3405 73.4524 43.5655 84.5542 47.1871 75.5115C56.3127 79.3129 66.3007 81.0264 63.3115 67.9519C63.3115 67.9519 73.8025 69.8382 75.7282 68.1535C85.0982 60.0035 74.0899 51.364 63.4696 52.2279C62.7079 52.2855 61.5007 52.6023 60.7678 52.8471L42.4015 59.1396C38.3919 60.5219 33.9225 60.1187 30.344 57.8148C22.4255 52.7175 17.7118 44.0348 19.7525 34.3873C21.0459 28.2964 26.1764 23.8615 31.7524 21.0104C32.7728 20.4921 33.8793 20.1753 35.0147 20.0889L82.9713 16.4891L83 16.5179Z" fill="#2B2D42"/>
<path d="M41.0936 29.7363L44.787 37.2527C45.2325 38.1599 45.2325 39.211 44.787 40.1182L41.0649 47.8218L37.429 40.075C37.0122 39.1822 37.0122 38.1455 37.4433 37.2671L41.0792 29.7507L41.0936 29.7363Z" fill="#2B2D42"/>
<path d="M49.3283 8.03711L50.4062 10.2402C50.5355 10.4994 50.5355 10.8162 50.4062 11.0753L49.314 13.3216L48.2505 11.0609C48.1212 10.8018 48.1355 10.4994 48.2505 10.2402L49.314 8.03711H49.3283Z" fill="white"/>
</svg>
