<svg width="144" height="156" viewBox="0 0 144 156" fill="none" xmlns="http://www.w3.org/2000/svg">
<g clip-path="url(#clip0_460_128)">
<path d="M33.0032 76.483C39.3237 78.6891 61.2584 64.7375 71.9066 85.2299C72.5449 86.4417 73.6657 86.535 74.413 85.3853C75.4716 83.7695 75.5183 83.35 76.1098 81.7809C93.3431 86.6126 89.9961 74.1681 89.9961 74.1681C103.96 78.4716 106.077 59.9834 106.077 59.9834C113.846 61.8944 114.235 47.601 114.235 47.601C123.996 40.2368 107.51 26.1454 107.51 26.1454C110.872 24.6073 103.914 2.21946 85.2013 5.94817C84.6253 6.05692 84.0182 6.02585 83.4733 5.77727C79.2078 3.89738 59.5304 -4.1815 57.709 6.16568C47.1853 4.19257 36.2102 4.62758 42.3126 17.7558C42.3126 17.7558 30.7771 18.1131 29.0958 20.3348C21.0006 31.0393 34.5911 37.6888 45.6597 34.3951C46.4536 34.1621 47.6679 33.5562 48.384 33.1367L66.4268 22.3856C70.3654 20.0241 75.2069 19.4492 79.5036 21.0805C89.0465 24.6849 95.9741 32.7949 95.9741 43.4373C95.9741 50.1645 91.5217 55.9906 86.2599 60.2475C85.2947 61.0244 84.205 61.6147 83.0218 61.9565L33.0032 76.4985V76.483Z" fill="#2B2D42" stroke="#ECB342" stroke-miterlimit="10"/>
<path d="M76.1565 31.8783L80.1574 39.9882C80.64 40.967 80.64 42.1012 80.1574 43.08L76.1254 51.3919L72.1868 43.0334C71.7353 42.0701 71.7353 40.9515 72.2024 40.0038L76.141 31.8938L76.1565 31.8783Z" fill="#ECB342"/>
<path d="M10.944 109.358C9.49622 118.85 22.9622 135.738 22.9622 135.738H0V96.4161C0 82.3713 22.9622 79.0931 22.9622 93.1379V96.5248H17.4668V94.5206C17.4357 89.9064 11.6912 89.9996 11.5978 93.2622V99.4146H22.9933L22.9777 103.314C22.9777 103.314 12.4074 99.8651 10.9596 109.358H10.944Z" fill="#2B2D42"/>
<path d="M63.1421 98.4358V134.76H45.7998V124.49H45.2549C42.5929 140.695 25.811 137.494 25.811 126.712V98.4358H44.6634L42.733 101.496C38.9034 107.602 39.8841 115.65 45.2549 120.451C45.3016 120.497 45.5196 120.28 45.8465 119.907C51.0305 114.003 51.1395 105.21 46.2512 99.0573L45.7531 98.4203H63.1421V98.4358Z" fill="#2B2D42"/>
<path d="M74.4752 150.016C77.9468 150.653 86.182 145.992 89.171 144.206C89.9027 143.771 90.541 143.196 91.0547 142.497C93.3898 139.343 96.0986 135.49 99.7725 138.038C102.777 140.632 102.653 143.864 102.653 143.864C102.653 143.864 103.229 153.994 74.8644 156.169C72.109 156.293 70.8636 156.029 69.0889 155.749C67.5477 155.501 66.1777 154.475 65.7107 152.984C64.2629 148.261 67.6878 143.413 72.3736 139.203C74.1172 137.634 78.9587 136.671 81.6986 136.065L88.9686 134.247L88.8908 124.49H88.3459C85.6839 140.695 65.773 137.494 65.773 126.712V108.379C65.773 102.879 70.2409 98.4358 75.7362 98.4358H103.088V134.791C103.088 134.791 88.9842 139.887 84.9833 141.192C80.9825 142.497 76.7792 137.649 72.6383 145.231C72.6383 145.231 70.1786 149.224 74.4441 150.016H74.4752ZM86.3844 102.149L83.3332 106.546C81.6363 108.985 81.5273 112.185 83.0374 114.733L86.3844 120.358L89.4045 114.671C90.7745 112.108 90.6655 109.016 89.1243 106.561L86.3689 102.133L86.3844 102.149Z" fill="#2B2D42"/>
<path d="M106.685 109.28V125.702C106.685 140.151 144 140.151 144 125.702V109.28C144 94.8314 106.685 94.8314 106.685 109.28ZM131.966 126.246C131.437 126.65 130.814 126.96 130.145 127.116C120.213 129.555 115.978 123.542 113.83 117.716C112.554 114.267 113.97 110.414 117.177 108.612C118.952 107.618 120.695 106.515 122.486 105.598C123.902 104.883 126.253 104.666 127.747 105.179C133.461 107.26 136.699 110.88 137.322 116.862C137.181 121.678 133.679 124.941 131.966 126.246Z" fill="#2B2D42"/>
<path d="M125.91 110.539L127.997 114.749C128.246 115.262 128.246 115.852 127.997 116.349L125.91 120.668L123.871 116.334C123.638 115.836 123.638 115.262 123.871 114.764L125.91 110.554V110.539Z" fill="#2B2D42"/>
</g>
<defs>
<clipPath id="clip0_460_128">
<rect width="144" height="156" fill="white"/>
</clipPath>
</defs>
</svg>
